<svg width="21" height="21" viewBox="0 0 21 21" fill="none" xmlns="http://www.w3.org/2000/svg">
<g clip-path="url(#clip0_75_1127)">
<path d="M13.8333 18V16.3333C13.8333 15.4493 13.4821 14.6014 12.8569 13.9763C12.2318 13.3512 11.384 13 10.4999 13H4.66659C3.78253 13 2.93468 13.3512 2.30956 13.9763C1.68444 14.6014 1.33325 15.4493 1.33325 16.3333V18M14.6666 9.66667L16.3333 11.3333L19.6666 8M10.9166 6.33333C10.9166 8.17428 9.4242 9.66667 7.58325 9.66667C5.7423 9.66667 4.24992 8.17428 4.24992 6.33333C4.24992 4.49238 5.7423 3 7.58325 3C9.4242 3 10.9166 4.49238 10.9166 6.33333Z" stroke="#006AD7" stroke-linecap="round" stroke-linejoin="round"/>
</g>
<defs>
<clipPath id="clip0_75_1127">
<rect width="20" height="20" fill="white" transform="translate(0.5 0.5)"/>
</clipPath>
</defs>
</svg>
